#!OML:ASF F:\VICON\USERDATA\INSTALL\rory3\rory3.ASF
:FULLY-SPECIFIED
:DEGREES
202
root 0.0250051 18.1921 7.18314 -2.64791 -1.17564 -5.69331
lowerback 10.3568 0.887846 5.8792
upperback -0.00399765 2.02241 2.24882
thorax -5.7058 0.860071 -1.25119
lowerneck -15.9275 -3.25764 -1.47324
upperneck 23.4728 -4.09384 -0.352271
head 10.1365 -2.05989 -0.422066
rclavicle 2.19036e-014 3.65764e-014
rhumerus -25.0794 -14.578 -80.7645
rradius 25.1973
rwrist 3.71648
rhand -19.2389 24.2085
rfingers 7.12502
rthumb 7.07459 -5.65322
lclavicle 2.19036e-014 3.65764e-014
lhumerus -34.3481 3.29035 83.7758
lradius 25.3937
lwrist 5.42403
lhand -27.5777 25.8881
lfingers 7.12502
lthumb -0.978087 55.8656
rfemur -3.43791 5.33639 32.4789
rtibia 27.5329
rfoot -15.8305 -4.80721
rtoes 10.4542
lfemur -25.4601 4.0137 -14.1823
ltibia 63.5348
lfoot -4.01704 -0.857546
ltoes -6.2404
203
root 0.0247273 18.1703 7.34345 -2.53429 -1.5011 -5.95655
lowerback 10.2948 1.068 6.20811
upperback 0.066054 2.29095 2.23783
thorax -5.56725 0.987631 -1.48266
lowerneck -16.2844 -3.32888 -1.51049
upperneck 23.5341 -4.21614 -0.204874
head 10.2319 -2.09971 -0.388279
rclavicle -1.41199e-014 -2.56432e-014
rhumerus -24.6241 -14.0277 -81.0492
rradius 25.7228
rwrist 3.23269
rhand -19.2368 24.4398
rfingers 7.12502
rthumb 7.07656 -5.42185
lclavicle -1.41199e-014 -2.56432e-014
lhumerus -34.7074 2.76657 83.9952
lradius 25.5732
lwrist 5.79937
lhand -28.6456 23.3706
lfingers 7.12502
lthumb -2.00948 53.3409
rfemur -3.00493 5.66979 32.8751
rtibia 27.625
rfoot -16.2963 -5.02205
rtoes 10.8106
lfemur -26.1817 4.1142 -13.9203
ltibia 62.0603
lfoot -4.87232 -0.112096
ltoes -6.83805
204
root 0.0302219 18.1472 7.50515 -2.44151 -1.78936 -6.0305
lowerback 10.2733 1.18102 6.32534
upperback 0.0738954 2.45231 2.23441
thorax -5.53095 1.06479 -1.57382
lowerneck -16.307 -3.25385 -1.60373
upperneck 23.4787 -4.12907 -0.0286901
head 10.2223 -2.04682 -0.2987
rclavicle 2.67117e-014 2.26615e-014
rhumerus -24.3016 -12.9222 -81.3295
rradius 26.4007
rwrist 2.33669
rhand -19.3332 24.4545
rfingers 7.12502
rthumb 6.98349 -5.41028
lclavicle 2.67117e-014 2.26615e-014
lhumerus -34.9433 3.17158 83.8085
lradius 25.5562
lwrist 5.42737
lhand -27.736 23.5236
lfingers 7.12502
lthumb -1.13098 53.5004
rfemur -2.5176 5.93717 33.0438
rtibia 27.6565
rfoot -16.7889 -5.1812
rtoes 9.92037
lfemur -26.8291 4.04191 -13.8966
ltibia 60.3627
lfoot -5.49152 0.73647
ltoes -7.20771
205
root 0.0391243 18.128 7.66617 -2.31223 -2.08076 -6.26339
lowerback 10.425 1.25852 6.62799
upperback -0.0447161 2.61352 2.26335
thorax -5.71964 1.12762 -1.74137
lowerneck -16.0759 -3.16063 -1.46505
upperneck 23.2889 -4.0139 -0.119254
head 10.1034 -1.99418 -0.331416
rclavicle 3.52843e-015 -1.45113e-014
rhumerus -24.0624 -11.9432 -81.5643
rradius 26.9111
rwrist 1.61458
rhand -19.5952 24.5508
rfingers 7.12502
rthumb 6.7306 -5.32222
lclavicle 3.52843e-015 -1.45113e-014
lhumerus -35.2538 3.67316 83.6159
lradius 25.2305
lwrist 5.35687
lhand -27.2566 23.2877
lfingers 7.12502
lthumb -0.667908 53.2664
rfemur -2.03196 6.01873 33.3327
rtibia 27.5803
rfoot -17.2437 -5.26192
rtoes 9.85109
lfemur -27.3678 3.96987 -13.6784
ltibia 58.4649
lfoot -5.8285 1.5542
ltoes -6.503
206
root 0.0432698 18.1093 7.83448 -2.24786 -2.19396 -6.38134
lowerback 10.5544 1.35215 6.80046
upperback -0.120019 2.77415 2.24487
thorax -5.85189 1.19522 -1.88547
lowerneck -15.8935 -3.19636 -1.23317
upperneck 22.9576 -4.08934 -0.260755
head 9.94133 -2.02755 -0.421895
rclavicle -2.25621e-014 1.78906e-015
rhumerus -23.8768 -11.4344 -81.69
rradius 27.5276
rwrist 1.18662
rhand -19.4707 24.2856
rfingers 7.12502
rthumb 6.85074 -5.58354
lclavicle -2.25621e-014 1.78906e-015
lhumerus -35.5039 3.70677 83.6103
lradius 24.9332
lwrist 4.8725
lhand -27.1314 22.6295
lfingers 7.12502
lthumb -0.547009 52.6085
rfemur -1.42531 5.99689 33.5126
rtibia 27.3655
rfoot -17.5767 -5.36027
rtoes 10.1412
lfemur -27.7435 3.79648 -13.5654
ltibia 56.3391
lfoot -6.06661 2.31908
ltoes -6.04319
207
root 0.0481247 18.1035 8.00869 -2.06924 -2.13579 -6.44201
lowerback 10.4513 1.3698 6.89677
upperback -0.169146 2.80185 2.2256
thorax -5.83845 1.20528 -1.96043
lowerneck -15.9597 -3.22423 -1.15435
upperneck 22.7951 -4.13765 -0.296575
head 9.89322 -2.04767 -0.452975
rclavicle -2.66496e-014 -6.95746e-015
rhumerus -23.6562 -10.8382 -81.8373
rradius 28.2175
rwrist 0.700985
rhand -18.6989 23.7566
rfingers 7.12502
rthumb 7.59579 -6.08697
lclavicle -2.66496e-014 -6.95746e-015
lhumerus -35.7499 3.93749 83.5143
lradius 24.7448
lwrist 4.03715
lhand -27.2605 21.9103
lfingers 7.12502
lthumb -0.671733 51.889
rfemur -0.852025 5.80695 33.6076
rtibia 27.0786
rfoot -17.8579 -5.44692
rtoes 9.16256
lfemur -28.0964 3.41272 -13.5277
ltibia 54.0016
lfoot -6.75514 2.90777
ltoes -7.80729
